<svg xmlns="http://www.w3.org/2000/svg" xmlns:xlink="http://www.w3.org/1999/xlink" width="20" height="20" version="1.1" viewBox="0 0 20 20"><path fill="inherit" d="M13,6 L11,6 L11,4 L4,4 L4,11 L6,11 L6,13 L3,13 C2.44771525,13 2,12.5522847 2,12 L2,3 C2,2.44771525 2.44771525,2 3,2 L12,2 C12.5522847,2 13,2.44771525 13,3 L13,6 Z"/><path fill="currentColor" d="M18,8 L18,17 C18,17.5522847 17.5522847,18 17,18 L8,18 C7.44771525,18 7,17.5522847 7,17 L7,8 C7,7.44771525 7.44771525,7 8,7 L17,7 C17.5522847,7 18,7.44771525 18,8 Z"/></svg>